<svg width="17" height="17" viewBox="0 0 17 17" fill="none" xmlns="http://www.w3.org/2000/svg">
<path d="M15.1842 4.59989L13.2786 4.59989C13.1989 4.43725 13.113 4.27891 13.0221 4.12596C13.0989 4.05487 13.1736 3.98164 13.2463 3.90731C14.1561 2.96807 13.9027 1.24902 12.8454 0.666311C12.7505 0.61461 12.6405 0.673851 12.6031 0.788024C12.4042 1.39766 11.9801 1.9416 11.4004 2.36706C10.5108 1.7348 9.44349 1.36858 8.30041 1.36858C7.15734 1.36858 6.08899 1.73587 5.19937 2.36706C4.61975 1.94268 4.19564 1.39874 3.9957 0.788024C3.95834 0.673851 3.84828 0.61461 3.75336 0.666311C2.69207 1.25118 2.44568 2.97454 3.36156 3.91593C3.43224 3.98917 3.50394 4.05918 3.57866 4.12811C3.48677 4.28107 3.40094 4.43832 3.32218 4.59989L1.41671 4.59989C1.2915 4.59989 1.19759 4.71944 1.21678 4.85193C1.32584 5.6059 1.92262 6.24031 2.74761 6.55052C2.73246 6.66684 2.72136 6.78317 2.71327 6.90058L2.55272 9.19589C2.3033 12.7622 4.94794 15.8017 8.30041 15.8017C9.10521 15.8017 9.8686 15.6262 10.5613 15.3106C10.2503 14.814 10.118 14.2227 10.1857 13.6141C10.3109 12.467 11.1823 11.5375 12.2578 11.4039C12.3517 11.3921 12.4476 11.3856 12.5415 11.3856C12.9757 11.3856 13.3806 11.5073 13.7301 11.7217C13.9926 10.9386 14.1096 10.0834 14.0481 9.19589L13.8875 6.90058C13.8794 6.78317 13.8684 6.66684 13.8532 6.55052C14.6782 6.24031 15.275 5.6059 15.384 4.85193C15.4032 4.71944 15.3094 4.59989 15.1842 4.59989ZM8.30041 12.3335L5.76181 12.3335C5.52552 12.3335 5.33872 12.117 5.35992 11.8649L5.81937 6.18754C5.8214 6.1563 5.82442 6.12613 5.82846 6.09491C5.84966 5.90426 5.89005 5.72008 5.94761 5.54451C6.06272 5.18798 6.24751 4.86808 6.48482 4.59989C6.93922 4.08072 7.58649 3.75975 8.30041 3.75975C8.94668 3.75975 9.53942 4.02364 9.98371 4.45879C10.0302 4.50403 10.0746 4.55142 10.116 4.59989C10.3533 4.86808 10.5381 5.18798 10.6532 5.54451C10.7108 5.72008 10.7512 5.90426 10.7724 6.09491C10.7764 6.12613 10.7794 6.1563 10.7814 6.18754L11.0228 9.16787C11.1611 10.8697 9.90193 12.3335 8.30041 12.3335Z" fill="white"/>
<path d="M13.4917 12.3282C13.218 12.1408 12.8919 12.032 12.5415 12.032C12.4708 12.032 12.4001 12.0363 12.3274 12.0449C11.5266 12.1451 10.8804 12.8344 10.7865 13.6886C10.7319 14.1894 10.8612 14.6558 11.1116 15.023C11.4236 15.4809 11.9235 15.7824 12.491 15.7986L12.491 15.8019L14.1066 15.8019C14.2177 15.8019 14.3085 15.7049 14.3085 15.5865L14.3085 13.863L14.3055 13.863C14.2884 13.2179 13.9693 12.6546 13.4917 12.3282Z" fill="white"/>
</svg>
